<svg width="13" height="13" viewBox="0 0 13 13" fill="none" xmlns="http://www.w3.org/2000/svg">
<g clip-path="url(#clip0_1_33)">
<path d="M6.5 0C2.91547 0 0 2.91547 0 6.5C0 10.0845 2.91547 13 6.5 13C10.0845 13 13 10.0845 13 6.5C13 2.91547 10.0845 0 6.5 0ZM6.5 12.1333C3.39387 12.1333 0.866667 9.60613 0.866667 6.5C0.866667 3.39387 3.39387 0.866667 6.5 0.866667C9.60613 0.866667 12.1333 3.39387 12.1333 6.5C12.1333 9.60613 9.60613 12.1333 6.5 12.1333Z" fill="white"/>
<path d="M6.93333 3.03333H6.06667V6.06667H3.03333V6.93333H6.06667V9.96667H6.93333V6.93333H9.96667V6.06667H6.93333V3.03333Z" fill="white"/>
</g>
<defs>
<clipPath id="clip0_1_33">
<rect width="13" height="13" fill="white"/>
</clipPath>
</defs>
</svg>
