<svg width="30" height="30" viewBox="0 0 30 30" fill="none" xmlns="http://www.w3.org/2000/svg">
<g clip-path="url(#clip0_1_76)">
<path d="M15 0C6.728 0 0 6.728 0 15C0 23.272 6.728 30 15 30C23.272 30 30 23.272 30 15C30 6.728 23.272 0 15 0ZM15 28C7.832 28 2 22.168 2 15C2 7.832 7.832 2 15 2C22.168 2 28 7.832 28 15C28 22.168 22.168 28 15 28Z" fill="white"/>
<path d="M16 7H14V14H7V16H14V23H16V16H23V14H16V7Z" fill="white"/>
</g>
<defs>
<clipPath id="clip0_1_76">
<rect width="30" height="30" fill="white"/>
</clipPath>
</defs>
</svg>
