<svg width="20" height="20" viewBox="0 0 20 20" fill="none" xmlns="http://www.w3.org/2000/svg">
<g clip-path="url(#clip0_110_174)">
<path d="M10 0C4.48533 0 0 4.48533 0 10C0 15.5147 4.48533 20 10 20C15.5147 20 20 15.5147 20 10C20 4.48533 15.5147 0 10 0ZM10 18.6667C5.22133 18.6667 1.33333 14.7787 1.33333 10C1.33333 5.22133 5.22133 1.33333 10 1.33333C14.7787 1.33333 18.6667 5.22133 18.6667 10C18.6667 14.7787 14.7787 18.6667 10 18.6667Z" fill="url(#paint0_linear_110_174)"/>
<path d="M10.6666 4.66669H9.33329V9.33335H4.66663V10.6667H9.33329V15.3334H10.6666V10.6667H15.3333V9.33335H10.6666V4.66669Z" fill="url(#paint1_linear_110_174)"/>
</g>
<defs>
<linearGradient id="paint0_linear_110_174" x1="10" y1="0" x2="10" y2="20" gradientUnits="userSpaceOnUse">
<stop stop-color="#00D0FF"/>
<stop offset="1" stop-color="#B700FF"/>
</linearGradient>
<linearGradient id="paint1_linear_110_174" x1="9.99996" y1="4.66669" x2="9.99996" y2="15.3334" gradientUnits="userSpaceOnUse">
<stop stop-color="#00D0FF"/>
<stop offset="1" stop-color="#B700FF"/>
</linearGradient>
<clipPath id="clip0_110_174">
<rect width="20" height="20" fill="white"/>
</clipPath>
</defs>
</svg>
