<svg width="20" height="20" viewBox="0 0 20 20" fill="none" xmlns="http://www.w3.org/2000/svg">
<path d="M14 20H5.9C4.25 20 2.95 18.65 2.95 17.05V8C2.95 7.7 3.15 7.5 3.45 7.5C3.75 7.5 3.95 7.7 3.95 8V17.05C3.95 18.15 4.85 19 5.9 19H14C15.1 19 15.95 18.1 15.95 17.05V8C15.95 7.7 16.15 7.5 16.45 7.5C16.75 7.5 16.95 7.7 16.95 8V17.05C16.95 18.65 15.6 20 14 20Z" fill="white"/>
<path d="M16.65 2.45H12.85C12.6 1.05 11.4 0 9.95 0C8.5 0 7.3 1.05 7.05 2.45H3.25C2.1 2.45 1.2 3.35 1.2 4.5C1.2 5.65 2.1 6.5 3.25 6.5H16.7C17.85 6.5 18.75 5.6 18.75 4.45C18.75 3.3 17.8 2.45 16.65 2.45ZM9.95 1C10.85 1 11.6 1.6 11.8 2.45H8.05C8.3 1.6 9.05 1 9.95 1ZM16.65 5.5H3.25C2.7 5.5 2.2 5.05 2.2 4.45C2.2 3.9 2.65 3.4 3.25 3.4H16.7C17.25 3.4 17.75 3.85 17.75 4.45C17.7 5.05 17.25 5.5 16.65 5.5Z" fill="white"/>
<path d="M6.45 17.55C6.15 17.55 5.95 17.35 5.95 17.05V8.70001C5.95 8.40001 6.15 8.20001 6.45 8.20001C6.75 8.20001 6.95 8.40001 6.95 8.70001V17.05C6.95 17.3 6.7 17.55 6.45 17.55Z" fill="white"/>
<path d="M13.45 17.55C13.15 17.55 12.95 17.35 12.95 17.05V8.70001C12.95 8.40001 13.15 8.20001 13.45 8.20001C13.75 8.20001 13.95 8.40001 13.95 8.70001V17.05C13.95 17.3 13.7 17.55 13.45 17.55Z" fill="white"/>
<path d="M9.95 17.55C9.65 17.55 9.45 17.35 9.45 17.05V8.70001C9.45 8.40001 9.65 8.20001 9.95 8.20001C10.25 8.20001 10.45 8.40001 10.45 8.70001V17.05C10.45 17.3 10.2 17.55 9.95 17.55Z" fill="white"/>
</svg>
