<svg width="800" height="800" viewBox="0 0 800 800" fill="none" xmlns="http://www.w3.org/2000/svg">
<path d="M334.343 298.988C324.58 289.225 308.751 289.225 298.988 298.988C289.225 308.752 289.225 324.581 298.988 334.343L364.643 400L298.989 465.657C289.226 475.417 289.226 491.247 298.989 501.01C308.752 510.773 324.581 510.773 334.343 501.01L400 435.357L465.653 501.01C475.417 510.773 491.247 510.773 501.01 501.01C510.773 491.247 510.773 475.417 501.01 465.653L435.353 400L501.01 334.343C510.773 324.581 510.773 308.752 501.01 298.989C491.247 289.226 475.417 289.226 465.653 298.989L400 364.643L334.343 298.988Z" fill="white"/>
<path fill-rule="evenodd" clip-rule="evenodd" d="M400 41.6665C202.098 41.6665 41.6666 202.098 41.6666 400C41.6666 597.903 202.098 758.333 400 758.333C597.903 758.333 758.333 597.903 758.333 400C758.333 202.098 597.903 41.6665 400 41.6665ZM91.6666 400C91.6666 229.712 229.712 91.6665 400 91.6665C570.287 91.6665 708.333 229.712 708.333 400C708.333 570.286 570.287 708.333 400 708.333C229.712 708.333 91.6666 570.286 91.6666 400Z" fill="white"/>
</svg>
