<svg width="25" height="25" viewBox="0 0 25 25" fill="none" xmlns="http://www.w3.org/2000/svg">
<g clip-path="url(#clip0_160_2)">
<path d="M25 1.78875C25 0.869582 24.2525 0.122082 23.3333 0.122082H1.66667C0.7475 0.122082 0 0.869582 0 1.78875C0 2.56333 0.533333 3.21 1.25 3.39625V23.6279L2.5 22.3779L5 24.8779L7.5 22.3779L10 24.8779L12.5 22.3779L15 24.8779L17.5 22.3779L20 24.8779L22.5 22.3779L23.75 23.6279V3.39625C24.4667 3.21 25 2.56333 25 1.78875ZM22.9167 21.6163L22.5 21.1996L20 23.6996L17.5 21.1996L15 23.6996L12.5 21.1996L10 23.6996L7.5 21.1996L5 23.6996L2.5 21.1996L2.08333 21.6163V3.45542V2.20542H22.9167V3.45542V21.6163ZM23.75 2.51V1.37208H1.25V2.51C1.00125 2.36625 0.833333 2.09667 0.833333 1.78875C0.833333 1.32917 1.20708 0.955415 1.66667 0.955415H23.3333C23.7929 0.955415 24.1667 1.32917 24.1667 1.78875C24.1667 2.09667 23.9987 2.36625 23.75 2.51Z" fill="white"/>
<path d="M18.3334 16.7887H12.0834C11.8534 16.7887 11.6667 16.975 11.6667 17.2054C11.6667 17.4358 11.8534 17.6221 12.0834 17.6221H18.3334C18.5634 17.6221 18.7501 17.4358 18.7501 17.2054C18.7501 16.975 18.5634 16.7887 18.3334 16.7887Z" fill="white"/>
<path d="M20.1208 16.9096C20.0458 16.9883 20 17.0925 20 17.2054C20 17.3137 20.0458 17.4221 20.1208 17.5012C20.2 17.5762 20.3083 17.6221 20.4167 17.6221C20.525 17.6221 20.6333 17.5762 20.7125 17.5012C20.7875 17.4221 20.8333 17.3137 20.8333 17.2054C20.8333 17.0925 20.7875 16.9883 20.7125 16.9096C20.5542 16.7554 20.2792 16.7554 20.1208 16.9096Z" fill="white"/>
<path d="M20.4167 10.9554H14.1667C13.9367 10.9554 13.75 11.1417 13.75 11.3721C13.75 11.6025 13.9367 11.7887 14.1667 11.7887H20.4167C20.6467 11.7887 20.8333 11.6025 20.8333 11.3721C20.8333 11.1417 20.6467 10.9554 20.4167 10.9554Z" fill="white"/>
<path d="M20.4166 13.8721H16.2499C16.0199 13.8721 15.8333 14.0583 15.8333 14.2887C15.8333 14.5192 16.0199 14.7054 16.2499 14.7054H20.4166C20.6466 14.7054 20.8333 14.5192 20.8333 14.2887C20.8333 14.0583 20.6466 13.8721 20.4166 13.8721Z" fill="white"/>
<path d="M11.6667 14.2887C11.6667 14.5192 11.8534 14.7054 12.0834 14.7054H12.9167C13.1467 14.7054 13.3334 14.5192 13.3334 14.2887C13.3334 14.0583 13.1467 13.8721 12.9167 13.8721H12.0834C11.8534 13.8721 11.6667 14.0583 11.6667 14.2887Z" fill="white"/>
<path d="M18.7501 8.45542C18.7501 8.225 18.5634 8.03875 18.3334 8.03875H12.0834C11.8534 8.03875 11.6667 8.225 11.6667 8.45542C11.6667 8.68583 11.8534 8.87208 12.0834 8.87208H18.3334C18.5634 8.87208 18.7501 8.68583 18.7501 8.45542Z" fill="white"/>
<path d="M20.1208 8.15958C20.0458 8.23833 20 8.3425 20 8.45541C20 8.56375 20.0458 8.67208 20.1208 8.75125C20.2 8.82625 20.3083 8.87208 20.4167 8.87208C20.5292 8.87208 20.6333 8.82625 20.7125 8.75125C20.7875 8.67208 20.8333 8.56375 20.8333 8.45541C20.8333 8.34708 20.7875 8.23833 20.7125 8.15958C20.5583 8.00542 20.275 8.00542 20.1208 8.15958Z" fill="white"/>
<path d="M12.7958 11.6679C12.8708 11.5887 12.9166 11.4846 12.9166 11.3721C12.9166 11.2592 12.8708 11.155 12.7958 11.0762C12.6416 10.9221 12.3624 10.9221 12.2041 11.0762C12.1291 11.155 12.0833 11.2592 12.0833 11.3721C12.0833 11.4846 12.1291 11.5887 12.2041 11.6679C12.2833 11.7429 12.3916 11.7887 12.4999 11.7887C12.6083 11.7887 12.7166 11.7429 12.7958 11.6679Z" fill="white"/>
<path d="M14.8792 14.5846C14.9542 14.5054 15.0001 14.4012 15.0001 14.2887C15.0001 14.1758 14.9542 14.0679 14.8792 13.9929C14.7251 13.8387 14.4459 13.8387 14.2876 13.9929C14.2126 14.0717 14.1667 14.1804 14.1667 14.2887C14.1667 14.3971 14.2126 14.5054 14.2876 14.5846C14.3667 14.6596 14.4751 14.7054 14.5834 14.7054C14.6917 14.7054 14.8001 14.6596 14.8792 14.5846Z" fill="white"/>
<path d="M7.08325 8.91417V8.45542C7.08325 8.225 6.89659 8.03875 6.66659 8.03875C6.43659 8.03875 6.24992 8.225 6.24992 8.45542V8.91542C5.79534 9.00792 5.38117 9.24917 5.07575 9.61042C4.82117 9.91125 4.70325 10.2962 4.74492 10.695C4.78742 11.1029 4.99742 11.4813 5.32117 11.7329L6.24992 12.4554V14.7213C5.76617 14.5488 5.41659 14.0904 5.41659 13.5479C5.41659 13.3175 5.22992 13.1312 4.99992 13.1312C4.76992 13.1312 4.58325 13.3175 4.58325 13.5479C4.58325 14.5538 5.30034 15.3954 6.24992 15.5892V15.955C6.24992 16.1854 6.43659 16.3717 6.66659 16.3717C6.89659 16.3717 7.08325 16.1854 7.08325 15.955V15.5875C7.53784 15.495 7.952 15.2538 8.25784 14.8925C8.51242 14.5908 8.62992 14.2058 8.58825 13.8071C8.54533 13.3996 8.33575 13.0217 8.012 12.7704L7.08325 12.0483V9.7825C7.567 9.955 7.91659 10.4133 7.91659 10.9558C7.91659 11.1863 8.10325 11.3725 8.33325 11.3725C8.56325 11.3725 8.74992 11.1863 8.74992 10.9558C8.74992 9.94958 8.03284 9.10792 7.08325 8.91417ZM7.50033 13.4283C7.64575 13.5413 7.74033 13.7117 7.7595 13.8942C7.77742 14.065 7.72825 14.2288 7.62159 14.3546C7.47659 14.5258 7.28909 14.6458 7.08325 14.7192V13.1033L7.50033 13.4283ZM5.83284 11.0754C5.687 10.9621 5.59284 10.7917 5.57367 10.6088C5.55617 10.4383 5.60492 10.275 5.71159 10.1488C5.85659 9.9775 6.04409 9.8575 6.24992 9.78417V11.3996L5.83284 11.0754Z" fill="white"/>
<path d="M16.6667 5.12208C16.8968 5.12208 17.0833 4.93554 17.0833 4.70542C17.0833 4.4753 16.8968 4.28875 16.6667 4.28875C16.4365 4.28875 16.25 4.4753 16.25 4.70542C16.25 4.93554 16.4365 5.12208 16.6667 5.12208Z" fill="white"/>
<path d="M14.9999 5.12208C15.23 5.12208 15.4166 4.93554 15.4166 4.70542C15.4166 4.4753 15.23 4.28875 14.9999 4.28875C14.7698 4.28875 14.5833 4.4753 14.5833 4.70542C14.5833 4.93554 14.7698 5.12208 14.9999 5.12208Z" fill="white"/>
<path d="M18.3334 5.12208C18.5635 5.12208 18.7501 4.93554 18.7501 4.70542C18.7501 4.4753 18.5635 4.28875 18.3334 4.28875C18.1033 4.28875 17.9167 4.4753 17.9167 4.70542C17.9167 4.93554 18.1033 5.12208 18.3334 5.12208Z" fill="white"/>
<path d="M13.3334 5.12208C13.5635 5.12208 13.7501 4.93554 13.7501 4.70542C13.7501 4.4753 13.5635 4.28875 13.3334 4.28875C13.1033 4.28875 12.9167 4.4753 12.9167 4.70542C12.9167 4.93554 13.1033 5.12208 13.3334 5.12208Z" fill="white"/>
<path d="M19.9999 5.12208C20.23 5.12208 20.4166 4.93554 20.4166 4.70542C20.4166 4.4753 20.23 4.28875 19.9999 4.28875C19.7698 4.28875 19.5833 4.4753 19.5833 4.70542C19.5833 4.93554 19.7698 5.12208 19.9999 5.12208Z" fill="white"/>
<path d="M8.33341 5.12208C8.56353 5.12208 8.75008 4.93554 8.75008 4.70542C8.75008 4.4753 8.56353 4.28875 8.33341 4.28875C8.1033 4.28875 7.91675 4.4753 7.91675 4.70542C7.91675 4.93554 8.1033 5.12208 8.33341 5.12208Z" fill="white"/>
<path d="M9.99992 5.12208C10.23 5.12208 10.4166 4.93554 10.4166 4.70542C10.4166 4.4753 10.23 4.28875 9.99992 4.28875C9.7698 4.28875 9.58325 4.4753 9.58325 4.70542C9.58325 4.93554 9.7698 5.12208 9.99992 5.12208Z" fill="white"/>
<path d="M11.6667 5.12208C11.8968 5.12208 12.0833 4.93554 12.0833 4.70542C12.0833 4.4753 11.8968 4.28875 11.6667 4.28875C11.4365 4.28875 11.25 4.4753 11.25 4.70542C11.25 4.93554 11.4365 5.12208 11.6667 5.12208Z" fill="white"/>
<path d="M21.6667 5.12208C21.8968 5.12208 22.0833 4.93554 22.0833 4.70542C22.0833 4.4753 21.8968 4.28875 21.6667 4.28875C21.4365 4.28875 21.25 4.4753 21.25 4.70542C21.25 4.93554 21.4365 5.12208 21.6667 5.12208Z" fill="white"/>
<path d="M6.66667 5.12208C6.89679 5.12208 7.08333 4.93554 7.08333 4.70542C7.08333 4.4753 6.89679 4.28875 6.66667 4.28875C6.43655 4.28875 6.25 4.4753 6.25 4.70542C6.25 4.93554 6.43655 5.12208 6.66667 5.12208Z" fill="white"/>
<path d="M4.99992 5.12208C5.23004 5.12208 5.41659 4.93554 5.41659 4.70542C5.41659 4.4753 5.23004 4.28875 4.99992 4.28875C4.7698 4.28875 4.58325 4.4753 4.58325 4.70542C4.58325 4.93554 4.7698 5.12208 4.99992 5.12208Z" fill="white"/>
<path d="M3.33341 5.12208C3.56353 5.12208 3.75008 4.93554 3.75008 4.70542C3.75008 4.4753 3.56353 4.28875 3.33341 4.28875C3.1033 4.28875 2.91675 4.4753 2.91675 4.70542C2.91675 4.93554 3.1033 5.12208 3.33341 5.12208Z" fill="white"/>
</g>
<defs>
<clipPath id="clip0_160_2">
<rect width="25" height="25" fill="white"/>
</clipPath>
</defs>
</svg>
