<svg width="25" height="25" viewBox="0 0 25 25" fill="none" xmlns="http://www.w3.org/2000/svg">
<g id="1904674-accept-approved-check-checked-confirm-done-tick_122524 1" clip-path="url(#clip0_1_200)">
<path id="Vector" d="M12.5 0C10.0277 0 7.61099 0.733112 5.55538 2.10663C3.49976 3.48015 1.89761 5.43238 0.951511 7.71646C0.00541601 10.0005 -0.242126 12.5139 0.24019 14.9386C0.722505 17.3634 1.91301 19.5907 3.66117 21.3388C5.40933 23.087 7.63661 24.2775 10.0614 24.7598C12.4861 25.2421 14.9995 24.9946 17.2835 24.0485C19.5676 23.1024 21.5199 21.5002 22.8934 19.4446C24.2669 17.389 25 14.9723 25 12.5C24.9964 9.1859 23.6783 6.00858 21.3348 3.66516C18.9914 1.32174 15.8141 0.00361886 12.5 0ZM12.5 23.8281C10.2595 23.8281 8.06934 23.1637 6.20644 21.919C4.34354 20.6742 2.89158 18.905 2.03418 16.8351C1.17678 14.7651 0.952449 12.4874 1.38955 10.29C1.82665 8.09255 2.90554 6.07407 4.48981 4.48981C6.07408 2.90554 8.09256 1.82664 10.29 1.38954C12.4874 0.952443 14.7651 1.17678 16.8351 2.03418C18.905 2.89158 20.6742 4.34353 21.919 6.20643C23.1637 8.06933 23.8281 10.2595 23.8281 12.5C23.8245 15.5033 22.6299 18.3825 20.5062 20.5062C18.3825 22.6298 15.5033 23.8245 12.5 23.8281Z" fill="#FFC37F"/>
<path id="Vector_2" d="M17.1681 8.27343L9.84777 15.4727L7.84582 13.3652C7.73787 13.2568 7.59181 13.195 7.43885 13.1928C7.2859 13.1907 7.13817 13.2485 7.02723 13.3538C6.91629 13.4591 6.85094 13.6036 6.84515 13.7565C6.83935 13.9094 6.89357 14.0584 6.99621 14.1719L9.40832 16.7109C9.46186 16.7671 9.52604 16.8121 9.59712 16.8433C9.6682 16.8745 9.74477 16.8912 9.82238 16.8926H9.83215C9.98558 16.8924 10.1329 16.8321 10.2423 16.7246L17.9864 9.10742C18.0413 9.05343 18.085 8.98915 18.1151 8.91827C18.1451 8.84738 18.1609 8.77127 18.1616 8.69428C18.1622 8.61729 18.1477 8.54093 18.1188 8.46956C18.0899 8.39819 18.0473 8.3332 17.9933 8.27831C17.9393 8.22343 17.875 8.17971 17.8041 8.14966C17.7332 8.11961 17.6571 8.10382 17.5801 8.10318C17.5032 8.10255 17.4268 8.11709 17.3554 8.14596C17.2841 8.17484 17.2191 8.21749 17.1642 8.27148L17.1681 8.27343Z" fill="#FFC37F"/>
</g>
<defs>
<clipPath id="clip0_1_200">
<rect width="25" height="25" fill="white"/>
</clipPath>
</defs>
</svg>
