<svg width="800" height="800" viewBox="0 0 800 800" fill="none" xmlns="http://www.w3.org/2000/svg">
<path fill-rule="evenodd" clip-rule="evenodd" d="M120.466 140.354C105.935 129.052 84.992 131.67 73.6897 146.201C62.3873 160.733 65.0053 181.675 79.537 192.978L155.462 252.031C126.145 284.843 101.022 322.681 80.618 363.2L79.8953 364.63C76.8513 370.63 72.9213 378.38 71.1633 387.936C69.765 395.536 69.765 404.463 71.1633 412.06C72.9213 421.616 76.8513 429.366 79.8953 435.37L80.618 436.8C145.274 565.2 257.328 666.666 400.003 666.666C474.377 666.666 540.43 639.093 595.787 594.506L679.537 659.643C694.07 670.946 715.01 668.33 726.313 653.796C737.617 639.266 734.997 618.323 720.467 607.02L120.466 140.354ZM541.37 552.18L481.447 505.573C458.92 522.98 430.67 533.333 400.003 533.333C326.364 533.333 266.669 473.636 266.669 400C266.669 381.176 270.569 363.266 277.605 347.03L208.156 293.014C182.22 321.323 159.31 355.156 140.162 393.183C139.205 395.083 138.496 396.493 137.898 397.72C137.371 398.8 137.044 399.51 136.83 400C137.044 400.49 137.371 401.2 137.898 402.28C138.496 403.506 139.205 404.913 140.162 406.816C198.657 522.98 292.242 600 400.003 600C451.047 600 498.91 582.716 541.37 552.18ZM333.957 390.86C333.547 393.846 333.337 396.9 333.337 400C333.337 436.82 363.183 466.666 400.003 466.666C408.89 466.666 417.373 464.926 425.127 461.77L333.957 390.86Z" fill="white"/>
<path d="M365.02 271.303L533.317 402.204C533.33 401.47 533.337 400.733 533.337 400C533.337 326.362 473.64 266.667 400.003 266.667C387.897 266.667 376.167 268.28 365.02 271.303Z" fill="white"/>
<path d="M659.843 406.817C648.313 429.71 635.42 451.087 621.323 470.65L673.917 511.556C690.96 488.186 706.163 463.057 719.387 436.8L720.11 435.37C723.153 429.367 727.083 421.617 728.84 412.06C730.24 404.463 730.24 395.536 728.84 387.936C727.083 378.38 723.153 370.63 720.11 364.63L719.387 363.2C654.73 234.801 542.677 133.333 400.003 133.333C342.827 133.333 290.571 149.627 244.311 177.419L301.951 222.25C332.743 207.825 365.653 199.999 400.003 199.999C507.763 199.999 601.347 277.019 659.843 393.183C660.8 395.083 661.51 396.493 662.107 397.72C662.633 398.8 662.96 399.51 663.173 400C662.96 400.49 662.633 401.2 662.107 402.28C661.51 403.507 660.8 404.913 659.843 406.817Z" fill="white"/>
</svg>
