<svg width="154" height="24" viewBox="0 0 154 24" fill="none" xmlns="http://www.w3.org/2000/svg">
<path d="M19.2202 1.18182V23H14.7457L6.06321 10.4077H5.92472V23H0.651279V1.18182H5.18963L13.7763 13.7528H13.9574V1.18182H19.2202ZM22.536 23V1.18182H37.7491V5.46449H27.8095V9.93892H36.9714V14.2322H27.8095V18.7173H37.7491V23H22.536ZM61.6447 12.0909C61.6447 14.4915 61.1831 16.5263 60.2598 18.1953C59.3365 19.8643 58.0865 21.1321 56.5098 21.9986C54.9402 22.8651 53.1788 23.2983 51.2257 23.2983C49.2654 23.2983 47.5005 22.8615 45.9309 21.9879C44.3613 21.1143 43.1149 19.8466 42.1916 18.1847C41.2754 16.5156 40.8173 14.4844 40.8173 12.0909C40.8173 9.69034 41.2754 7.65554 42.1916 5.98651C43.1149 4.31747 44.3613 3.04972 45.9309 2.18324C47.5005 1.31676 49.2654 0.883522 51.2257 0.883522C53.1788 0.883522 54.9402 1.31676 56.5098 2.18324C58.0865 3.04972 59.3365 4.31747 60.2598 5.98651C61.1831 7.65554 61.6447 9.69034 61.6447 12.0909ZM56.2541 12.0909C56.2541 10.6705 56.0517 9.47017 55.6468 8.49006C55.2491 7.50994 54.6738 6.76775 53.921 6.26349C53.1752 5.75923 52.2768 5.5071 51.2257 5.5071C50.1816 5.5071 49.2832 5.75923 48.5304 6.26349C47.7775 6.76775 47.1987 7.50994 46.7939 8.49006C46.3961 9.47017 46.1973 10.6705 46.1973 12.0909C46.1973 13.5114 46.3961 14.7116 46.7939 15.6918C47.1987 16.6719 47.7775 17.4141 48.5304 17.9183C49.2832 18.4226 50.1816 18.6747 51.2257 18.6747C52.2768 18.6747 53.1752 18.4226 53.921 17.9183C54.6738 17.4141 55.2491 16.6719 55.6468 15.6918C56.0517 14.7116 56.2541 13.5114 56.2541 12.0909ZM83.2924 1.18182V23H78.818L70.1355 10.4077H69.997V23H64.7235V1.18182H69.2619L77.8485 13.7528H78.0297V1.18182H83.2924Z" fill="white"/>
<path d="M93.0536 23V1.18182H102.152C103.785 1.18182 105.152 1.41264 106.253 1.87429C107.361 2.33594 108.192 2.98224 108.746 3.81321C109.307 4.64418 109.588 5.60653 109.588 6.70028C109.588 7.53125 109.414 8.27344 109.066 8.92685C108.718 9.57315 108.238 10.1094 107.627 10.5355C107.017 10.9616 106.31 11.2599 105.507 11.4304V11.6435C106.388 11.6861 107.201 11.924 107.947 12.3572C108.7 12.7905 109.304 13.3942 109.758 14.1683C110.213 14.9354 110.44 15.8445 110.44 16.8956C110.44 18.0675 110.142 19.1151 109.545 20.0384C108.949 20.9545 108.086 21.679 106.956 22.2116C105.827 22.7372 104.456 23 102.844 23H93.0536ZM98.3271 18.7493H101.587C102.73 18.7493 103.572 18.5327 104.112 18.0994C104.659 17.6662 104.932 17.0625 104.932 16.2884C104.932 15.7273 104.801 15.2443 104.538 14.8395C104.275 14.4276 103.902 14.1115 103.419 13.8913C102.936 13.6641 102.358 13.5504 101.683 13.5504H98.3271V18.7493ZM98.3271 10.152H101.246C101.821 10.152 102.333 10.0561 102.78 9.86435C103.228 9.67259 103.576 9.3956 103.824 9.03338C104.08 8.67116 104.208 8.23437 104.208 7.72301C104.208 6.99148 103.949 6.41619 103.43 5.99716C102.912 5.57813 102.212 5.36861 101.331 5.36861H98.3271V10.152ZM117.695 23H112.027L119.389 1.18182H126.409L133.771 23H128.103L122.979 6.67898H122.809L117.695 23ZM116.939 14.4134H128.785V18.419H116.939V14.4134ZM136.12 23V1.18182H145.133C146.766 1.18182 148.176 1.47656 149.362 2.06605C150.555 2.64844 151.475 3.48651 152.121 4.58026C152.768 5.6669 153.091 6.95597 153.091 8.44744C153.091 9.96023 152.761 11.2457 152.1 12.304C151.44 13.3551 150.502 14.1577 149.288 14.7116C148.073 15.2585 146.635 15.532 144.973 15.532H139.273V11.3771H143.993C144.788 11.3771 145.452 11.2741 145.985 11.0682C146.525 10.8551 146.933 10.5355 147.21 10.1094C147.487 9.67614 147.626 9.12216 147.626 8.44744C147.626 7.77273 147.487 7.2152 147.21 6.77486C146.933 6.32741 146.525 5.99361 145.985 5.77344C145.445 5.54616 144.781 5.43253 143.993 5.43253H141.393V23H136.12ZM148.403 13.0284L153.837 23H148.084L142.757 13.0284H148.403Z" fill="#2EA2D8"/>
</svg>
