<svg width="25" height="25" viewBox="0 0 25 25" fill="none" xmlns="http://www.w3.org/2000/svg">
<g clip-path="url(#clip0_110_65)">
<path d="M12.5 22.6563C10.4913 22.6563 8.52768 22.0606 6.85749 20.9446C5.18731 19.8286 3.88556 18.2424 3.11685 16.3866C2.34815 14.5308 2.14702 12.4887 2.5389 10.5186C2.93079 8.5485 3.89807 6.73883 5.31845 5.31845C6.73883 3.89807 8.5485 2.93079 10.5186 2.5389C12.4887 2.14702 14.5308 2.34815 16.3866 3.11685C18.2424 3.88556 19.8286 5.18731 20.9446 6.85749C22.0606 8.52768 22.6563 10.4913 22.6563 12.5C22.6563 15.1936 21.5862 17.7769 19.6816 19.6816C17.7769 21.5862 15.1936 22.6563 12.5 22.6563ZM12.5 3.90625C10.8003 3.90625 9.13881 4.41027 7.72557 5.35456C6.31234 6.29886 5.21086 7.64102 4.56041 9.21132C3.90997 10.7816 3.73979 12.5095 4.07138 14.1766C4.40297 15.8436 5.22145 17.3748 6.42331 18.5767C7.62516 19.7786 9.15642 20.597 10.8234 20.9286C12.4905 21.2602 14.2184 21.09 15.7887 20.4396C17.359 19.7892 18.7012 18.6877 19.6454 17.2744C20.5897 15.8612 21.0938 14.1997 21.0938 12.5C21.0938 10.2208 20.1883 8.03495 18.5767 6.42331C16.9651 4.81167 14.7792 3.90625 12.5 3.90625Z" fill="#D82E2E"/>
<path d="M12.5 13.2813C11.7274 13.2813 10.9722 13.0522 10.3298 12.6229C9.68743 12.1937 9.18675 11.5836 8.8911 10.8699C8.59544 10.1561 8.51809 9.37067 8.66881 8.61293C8.81953 7.85519 9.19157 7.15916 9.73787 6.61287C10.2842 6.06657 10.9802 5.69453 11.7379 5.54381C12.4957 5.39309 13.2811 5.47044 13.9949 5.7661C14.7086 6.06175 15.3187 6.56243 15.7479 7.20481C16.1772 7.84718 16.4063 8.60242 16.4063 9.375C16.4063 10.411 15.9947 11.4046 15.2621 12.1371C14.5296 12.8697 13.536 13.2813 12.5 13.2813ZM12.5 7.03125C12.0365 7.03125 11.5833 7.16871 11.1979 7.42624C10.8125 7.68378 10.5121 8.04982 10.3347 8.47809C10.1573 8.90635 10.1109 9.3776 10.2013 9.83224C10.2917 10.2869 10.5149 10.7045 10.8427 11.0323C11.1705 11.3601 11.5881 11.5833 12.0428 11.6737C12.4974 11.7642 12.9687 11.7177 13.3969 11.5403C13.8252 11.363 14.1912 11.0625 14.4488 10.6771C14.7063 10.2917 14.8438 9.83855 14.8438 9.375C14.8438 8.7534 14.5968 8.15726 14.1573 7.71772C13.7177 7.27818 13.1216 7.03125 12.5 7.03125Z" fill="#D82E2E"/>
<path d="M19.9609 18.75C19.8525 18.7508 19.7451 18.7289 19.6456 18.6859C19.546 18.6428 19.4566 18.5795 19.3828 18.5C18.5536 17.5955 17.5456 16.873 16.4227 16.3781C15.2999 15.8832 14.0865 15.6268 12.8594 15.625H12.1406C9.85329 15.6201 7.65381 16.5055 6.00782 18.0938C5.85574 18.2193 5.66183 18.2826 5.465 18.2711C5.26816 18.2596 5.08296 18.1741 4.94654 18.0317C4.81011 17.8894 4.73256 17.7007 4.72944 17.5036C4.72631 17.3064 4.79785 17.1154 4.9297 16.9688C6.86398 15.0992 9.45052 14.0567 12.1406 14.0625H12.8594C14.3017 14.0658 15.7278 14.3673 17.0481 14.9481C18.3684 15.5289 19.5542 16.3765 20.5313 17.4375C20.6345 17.5488 20.703 17.6878 20.7286 17.8374C20.7541 17.9871 20.7355 18.1409 20.675 18.2801C20.6145 18.4194 20.5147 18.5379 20.3879 18.6214C20.2611 18.7048 20.1127 18.7495 19.9609 18.75Z" fill="#D82E2E"/>
</g>
<defs>
<clipPath id="clip0_110_65">
<rect width="25" height="25" fill="white"/>
</clipPath>
</defs>
</svg>
